<svg width="620" height="620" viewBox="0 0 620 620" fill="none" xmlns="http://www.w3.org/2000/svg" role="img" aria-labelledby="title desc">
  <title id="title">Helge Schnirring Baumpflege Garten- und Landschaftsbau</title>
  <desc id="desc">Vereinfachtes Firmenlogo mit Baumkrone in Burgunderrot und Stamm in Silbergrau auf transparentem Hintergrund.</desc>
  <path d="M52 173c28 7 45-20 83-21h58" stroke="#8B252B" stroke-width="18" stroke-linecap="round"/>
  <path d="M216 132c73-57 199-50 285 2 42 25 60 41 41 51-15 8-46 6-55 19-9 14 14 26 10 40-3 11-27 5-27 20 0 12 29 10 28 27-1 16-17 20-29 14" stroke="#8B252B" stroke-width="18" stroke-linecap="round" stroke-linejoin="round"/>
  <path d="M80 278c-37 4-58-2-63-20-8-31 36-28 28-49-4-9-32-7-33-22-1-18 22-27 48-24" stroke="#8B252B" stroke-width="18" stroke-linecap="round" stroke-linejoin="round"/>
  <path d="M135 220c28 59 7 145-52 188" stroke="#BDBDC2" stroke-width="17" stroke-linecap="round"/>
  <path d="M180 406c-20-73-3-155 52-208" stroke="#BDBDC2" stroke-width="17" stroke-linecap="round"/>
  <path d="M237 238c27-31 57-42 82-47" stroke="#BDBDC2" stroke-width="13" stroke-linecap="round"/>
  <path d="M352 303c40 11 76-6 86-41 4-13 4-28-1-43" stroke="#8B252B" stroke-width="16" stroke-linecap="round"/>
  <text x="310" y="461" text-anchor="middle" font-family="Inter, Arial, sans-serif" font-size="58" font-weight="800" fill="#8B252B">Helge Schnirring</text>
  <text x="310" y="520" text-anchor="middle" font-family="Inter, Arial, sans-serif" font-size="38" font-weight="700" fill="#BDBDC2">Baumpflege</text>
  <text x="310" y="572" text-anchor="middle" font-family="Inter, Arial, sans-serif" font-size="36" font-weight="700" fill="#BDBDC2">Garten- und Landschaftsbau</text>
  <text x="90" y="122" transform="rotate(-22 90 122)" font-family="Inter, Arial, sans-serif" font-size="24" font-weight="800" fill="#BDBDC2">baum gut – garten gut – einfach gute gärten</text>
</svg>
